<?xml version="1.0" encoding="UTF-8" standalone="no"?><!DOCTYPE svg PUBLIC "-//W3C//DTD SVG 1.1//EN" "http://www.w3.org/Graphics/SVG/1.1/DTD/svg11.dtd"><svg width="100%" height="100%" viewBox="0 0 533 79" version="1.1" xmlns="http://www.w3.org/2000/svg" xmlns:xlink="http://www.w3.org/1999/xlink" xml:space="preserve" xmlns:serif="http://www.serif.com/" style="fill-rule:evenodd;clip-rule:evenodd;stroke-linejoin:round;stroke-miterlimit:2;"><g transform="matrix(0.203744,0,0,0.203744,-14.4908,-39.9552)"><g transform="matrix(424.01,0,0,424.01,41.442,497.062)"><path d="M0.225,0.008c-0.046,0 -0.083,-0.016 -0.112,-0.047c-0.029,-0.031 -0.043,-0.072 -0.043,-0.123l0,-0.337l0.072,0l0,0.339c0,0.031 0.008,0.057 0.023,0.076c0.015,0.019 0.035,0.028 0.06,0.028l0.062,-0c0.031,-0 0.059,-0.012 0.085,-0.037c0.026,-0.025 0.043,-0.056 0.05,-0.093l-0,-0.313l0.072,0l-0,0.499l-0.07,-0l-0,-0.076c-0.015,0.024 -0.036,0.044 -0.061,0.06c-0.025,0.016 -0.05,0.024 -0.074,0.024l-0.064,0Z" style="fill:#284aaf;fill-rule:nonzero;"/></g><g transform="matrix(424.01,0,0,424.01,270.407,497.062)"><path d="M0.218,0.008c-0.051,0 -0.091,-0.014 -0.122,-0.043c-0.031,-0.029 -0.046,-0.066 -0.046,-0.113l0.07,0c-0,0.028 0.009,0.051 0.027,0.068c0.018,0.017 0.042,0.026 0.071,0.026l0.087,0c0.029,0 0.052,-0.006 0.07,-0.017c0.018,-0.012 0.027,-0.027 0.027,-0.046l-0,-0.034c-0,-0.013 -0.005,-0.024 -0.015,-0.033c-0.01,-0.01 -0.023,-0.017 -0.039,-0.02l-0.173,-0.03c-0.035,-0.006 -0.063,-0.019 -0.084,-0.039c-0.021,-0.021 -0.031,-0.045 -0.031,-0.072l-0,-0.033c-0,-0.039 0.015,-0.07 0.044,-0.093c0.029,-0.024 0.068,-0.036 0.116,-0.036l0.086,0c0.047,0 0.084,0.013 0.113,0.04c0.029,0.026 0.043,0.061 0.043,0.104l-0.07,0c-0.001,-0.025 -0.009,-0.044 -0.025,-0.059c-0.015,-0.015 -0.036,-0.023 -0.061,-0.023l-0.086,0c-0.027,0 -0.048,0.006 -0.064,0.019c-0.016,0.012 -0.024,0.028 -0.024,0.048l-0,0.029c-0,0.013 0.005,0.024 0.016,0.034c0.011,0.01 0.026,0.016 0.043,0.019l0.172,0.03c0.033,0.006 0.06,0.019 0.08,0.039c0.021,0.02 0.031,0.044 0.031,0.072l-0,0.04c-0,0.037 -0.016,0.066 -0.047,0.089c-0.031,0.023 -0.071,0.034 -0.122,0.034l-0.087,-0Z" style="fill:#284aaf;fill-rule:nonzero;"/></g><g transform="matrix(424.01,0,0,424.01,478.172,497.062)"><path d="M0.13,-0.574c-0.016,0 -0.029,-0.005 -0.039,-0.015c-0.01,-0.01 -0.015,-0.023 -0.015,-0.039c0,-0.016 0.005,-0.029 0.015,-0.039c0.01,-0.01 0.023,-0.015 0.039,-0.015c0.016,0 0.029,0.005 0.039,0.015c0.01,0.01 0.015,0.023 0.015,0.039c0,0.016 -0.005,0.029 -0.015,0.039c-0.01,0.01 -0.023,0.015 -0.039,0.015Zm-0.036,0.075l0.072,0l0,0.499l-0.072,0l0,-0.499Z" style="fill:#284aaf;fill-rule:nonzero;"/></g><g transform="matrix(424.01,0,0,424.01,575.695,497.062)"><path d="M0.076,-0.499l0.07,0l-0,0.074c0.015,-0.024 0.035,-0.044 0.06,-0.059c0.025,-0.015 0.049,-0.023 0.074,-0.023l0.068,0c0.046,0 0.083,0.016 0.111,0.047c0.029,0.031 0.043,0.072 0.043,0.123l0,0.337l-0.072,-0l0,-0.339c0,-0.031 -0.008,-0.056 -0.023,-0.075c-0.015,-0.019 -0.036,-0.029 -0.061,-0.029l-0.064,0c-0.031,0 -0.06,0.012 -0.086,0.037c-0.025,0.025 -0.041,0.056 -0.048,0.095l0,0.311l-0.072,0l0,-0.499Z" style="fill:#284aaf;fill-rule:nonzero;"/></g><g transform="matrix(424.01,0,0,424.01,805.508,497.062)"><path d="M0.238,0.203c-0.044,-0 -0.08,-0.012 -0.109,-0.036c-0.029,-0.023 -0.045,-0.054 -0.048,-0.093l0.072,-0c0.003,0.02 0.012,0.036 0.027,0.048c0.016,0.013 0.035,0.019 0.058,0.019l0.083,0c0.035,0 0.061,-0.012 0.08,-0.035c0.019,-0.023 0.029,-0.055 0.029,-0.096l-0,-0.077c-0.015,0.02 -0.034,0.036 -0.058,0.049c-0.023,0.012 -0.046,0.018 -0.068,0.018l-0.073,-0c-0.034,-0 -0.064,-0.008 -0.091,-0.024c-0.027,-0.016 -0.047,-0.038 -0.062,-0.067c-0.015,-0.029 -0.022,-0.062 -0.022,-0.1l-0,-0.117c-0,-0.059 0.017,-0.107 0.051,-0.144c0.035,-0.037 0.08,-0.055 0.136,-0.055l0.07,0c0.021,0 0.043,0.006 0.066,0.018c0.023,0.012 0.04,0.027 0.053,0.046l-0,-0.056l0.07,0l0,0.509c0,0.061 -0.016,0.108 -0.048,0.142c-0.032,0.034 -0.076,0.051 -0.133,0.051l-0.083,0Zm0.066,-0.267c0.033,0 0.062,-0.013 0.085,-0.039c0.024,-0.027 0.038,-0.06 0.041,-0.101l0,-0.123c-0.003,-0.034 -0.015,-0.062 -0.038,-0.083c-0.022,-0.022 -0.048,-0.033 -0.079,-0.033l-0.068,0c-0.035,0 -0.064,0.012 -0.085,0.037c-0.021,0.025 -0.032,0.057 -0.032,0.098l0,0.117c0,0.037 0.01,0.068 0.029,0.092c0.02,0.023 0.045,0.035 0.076,0.035l0.071,0Z" style="fill:#284aaf;fill-rule:nonzero;"/></g><g transform="matrix(424.01,0,0,424.01,1139.2,497.062)"><path d="M0.119,-0.418l-0.086,0l0,-0.081l0.086,0l0,-0.037c0,-0.055 0.015,-0.096 0.045,-0.125c0.03,-0.029 0.073,-0.043 0.13,-0.043l0.049,0l0,0.08l-0.049,0c-0.028,0 -0.049,0.007 -0.062,0.022c-0.013,0.014 -0.02,0.036 -0.02,0.067l-0,0.036l0.12,0l-0,0.081l-0.12,0l-0,0.418l-0.093,0l-0,-0.418Z" style="fill:#ff4e03;fill-rule:nonzero;stroke:#ff4e03;stroke-width:0.01px;"/></g><g transform="matrix(424.01,0,0,424.01,1270.65,497.062)"><path d="M0.245,0.008c-0.059,0 -0.106,-0.017 -0.142,-0.05c-0.035,-0.034 -0.053,-0.078 -0.053,-0.133l0,-0.138c0,-0.059 0.018,-0.106 0.053,-0.141c0.036,-0.035 0.083,-0.053 0.142,-0.053l0.082,0c0.057,0 0.102,0.017 0.137,0.052c0.035,0.035 0.052,0.081 0.052,0.138l0,0.094l-0.373,0l0,0.048c0,0.031 0.009,0.055 0.028,0.074c0.019,0.019 0.043,0.028 0.074,0.028l0.077,0c0.03,0 0.054,-0.008 0.073,-0.023c0.019,-0.016 0.028,-0.037 0.028,-0.063l0.091,0c0,0.05 -0.018,0.09 -0.053,0.121c-0.035,0.031 -0.082,0.046 -0.14,0.046l-0.076,0Zm0.178,-0.305l0,-0.02c0,-0.033 -0.009,-0.06 -0.027,-0.08c-0.017,-0.02 -0.04,-0.03 -0.069,-0.03l-0.082,0c-0.031,0 -0.055,0.011 -0.074,0.032c-0.019,0.021 -0.028,0.048 -0.028,0.083l0,0.015l0.28,0Z" style="fill:#ff4e03;fill-rule:nonzero;stroke:#ff4e03;stroke-width:0.01px;"/></g><g transform="matrix(424.01,0,0,424.01,1495.8,497.062)"><path d="M0.07,-0.499l0.089,0l0,0.069c0.015,-0.023 0.034,-0.041 0.058,-0.055c0.025,-0.015 0.049,-0.022 0.073,-0.022l0.066,0c0.048,0 0.087,0.016 0.116,0.048c0.03,0.032 0.045,0.074 0.045,0.126l0,0.333l-0.093,-0l-0,-0.333c-0,-0.027 -0.007,-0.049 -0.021,-0.066c-0.014,-0.017 -0.032,-0.026 -0.055,-0.026l-0.062,0c-0.029,0 -0.055,0.011 -0.078,0.033c-0.023,0.022 -0.038,0.051 -0.045,0.086l-0,0.306l-0.093,-0l-0,-0.499Z" style="fill:#ff4e03;fill-rule:nonzero;stroke:#ff4e03;stroke-width:0.01px;"/></g><g transform="matrix(424.01,0,0,424.01,1729.43,497.062)"><path d="M0.07,-0.499l0.089,0l0,0.069c0.015,-0.023 0.034,-0.041 0.058,-0.055c0.025,-0.015 0.049,-0.022 0.073,-0.022l0.066,0c0.048,0 0.087,0.016 0.116,0.048c0.03,0.032 0.045,0.074 0.045,0.126l0,0.333l-0.093,-0l-0,-0.333c-0,-0.027 -0.007,-0.049 -0.021,-0.066c-0.014,-0.017 -0.032,-0.026 -0.055,-0.026l-0.062,0c-0.029,0 -0.055,0.011 -0.078,0.033c-0.023,0.022 -0.038,0.051 -0.045,0.086l-0,0.306l-0.093,-0l-0,-0.499Z" style="fill:#ff4e03;fill-rule:nonzero;stroke:#ff4e03;stroke-width:0.01px;"/></g><g transform="matrix(424.01,0,0,424.01,1963.06,497.062)"><path d="M0.242,0.008c-0.056,0 -0.101,-0.016 -0.135,-0.049c-0.034,-0.033 -0.051,-0.077 -0.051,-0.132l0,-0.143c0,-0.057 0.017,-0.103 0.051,-0.138c0.034,-0.035 0.079,-0.053 0.135,-0.053l0.082,0c0.053,0 0.096,0.017 0.129,0.051c0.033,0.034 0.049,0.079 0.049,0.135l0,0.088l-0.374,0l0,0.06c0,0.035 0.01,0.063 0.031,0.085c0.021,0.021 0.049,0.032 0.083,0.032l0.076,0c0.033,0 0.06,-0.009 0.081,-0.027c0.021,-0.019 0.031,-0.043 0.031,-0.074l0.07,0c0,0.049 -0.017,0.089 -0.05,0.12c-0.033,0.03 -0.077,0.045 -0.132,0.045l-0.076,0Zm0.188,-0.303l0,-0.026c0,-0.037 -0.01,-0.066 -0.029,-0.088c-0.019,-0.023 -0.045,-0.034 -0.077,-0.034l-0.082,0c-0.034,0 -0.062,0.012 -0.083,0.035c-0.021,0.023 -0.031,0.054 -0.031,0.092l0,0.021l0.302,0Z" style="fill:#ff4e03;fill-rule:nonzero;"/></g><g transform="matrix(424.01,0,0,424.01,2184.39,497.062)"><path d="M0.238,0.008c-0.055,0 -0.099,-0.016 -0.132,-0.049c-0.033,-0.033 -0.05,-0.077 -0.05,-0.132l-0,-0.143c-0,-0.057 0.017,-0.103 0.05,-0.138c0.033,-0.035 0.077,-0.053 0.131,-0.053l0.082,0c0.051,0 0.093,0.014 0.124,0.043c0.031,0.029 0.047,0.066 0.047,0.113l-0.07,0c0,-0.027 -0.009,-0.049 -0.028,-0.066c-0.018,-0.017 -0.042,-0.026 -0.073,-0.026l-0.082,0c-0.033,0 -0.059,0.012 -0.079,0.035c-0.02,0.023 -0.03,0.054 -0.03,0.092l0,0.143c0,0.035 0.01,0.064 0.03,0.085c0.021,0.021 0.047,0.032 0.08,0.032l0.082,0c0.031,0 0.056,-0.011 0.075,-0.033c0.019,-0.022 0.029,-0.051 0.029,-0.088l0.07,0c0,0.055 -0.016,0.1 -0.048,0.134c-0.032,0.034 -0.074,0.051 -0.126,0.051l-0.082,0Z" style="fill:#ff4e03;fill-rule:nonzero;"/></g><g transform="matrix(424.01,0,0,424.01,2398.94,497.062)"><path d="M0.218,0.008c-0.051,0 -0.091,-0.014 -0.122,-0.043c-0.031,-0.029 -0.046,-0.066 -0.046,-0.113l0.07,0c-0,0.028 0.009,0.051 0.027,0.068c0.018,0.017 0.042,0.026 0.071,0.026l0.087,0c0.029,0 0.052,-0.006 0.07,-0.017c0.018,-0.012 0.027,-0.027 0.027,-0.046l-0,-0.034c-0,-0.013 -0.005,-0.024 -0.015,-0.033c-0.01,-0.01 -0.023,-0.017 -0.039,-0.02l-0.173,-0.03c-0.035,-0.006 -0.063,-0.019 -0.084,-0.039c-0.021,-0.021 -0.031,-0.045 -0.031,-0.072l-0,-0.033c-0,-0.039 0.015,-0.07 0.044,-0.093c0.029,-0.024 0.068,-0.036 0.116,-0.036l0.086,0c0.047,0 0.084,0.013 0.113,0.04c0.029,0.026 0.043,0.061 0.043,0.104l-0.07,0c-0.001,-0.025 -0.009,-0.044 -0.025,-0.059c-0.015,-0.015 -0.036,-0.023 -0.061,-0.023l-0.086,0c-0.027,0 -0.048,0.006 -0.064,0.019c-0.016,0.012 -0.024,0.028 -0.024,0.048l-0,0.029c-0,0.013 0.005,0.024 0.016,0.034c0.011,0.01 0.026,0.016 0.043,0.019l0.172,0.03c0.033,0.006 0.06,0.019 0.08,0.039c0.021,0.02 0.031,0.044 0.031,0.072l-0,0.04c-0,0.037 -0.016,0.066 -0.047,0.089c-0.031,0.023 -0.071,0.034 -0.122,0.034l-0.087,-0Z" style="fill:#ff4e03;fill-rule:nonzero;"/></g><g transform="matrix(424.01,0,0,424.01,2606.7,497.062)"><path d="M0.124,-0.356c-0.019,-0 -0.034,-0.006 -0.046,-0.018c-0.011,-0.012 -0.017,-0.027 -0.017,-0.046c0,-0.019 0.006,-0.034 0.017,-0.045c0.012,-0.012 0.027,-0.018 0.046,-0.018c0.019,0 0.034,0.006 0.046,0.018c0.012,0.011 0.018,0.026 0.018,0.045c0,0.019 -0.006,0.034 -0.018,0.046c-0.011,0.012 -0.027,0.018 -0.046,0.018Zm-0.118,0.436l0.02,-0.016c0.038,-0.028 0.057,-0.065 0.057,-0.11l0,-0.054l0.093,-0l0,0.054c0,0.079 -0.03,0.138 -0.089,0.179l-0.024,0.017l-0.057,-0.07Z" style="fill:#808080;fill-rule:nonzero;"/></g></g></svg>